<svg width="127" height="127" viewBox="0 0 127 127" fill="none" xmlns="http://www.w3.org/2000/svg">
<rect x="1.75" y="0.75" width="124.5" height="124.5" rx="62.25" stroke="#FFC8DD" stroke-width="1.5"/>
<path d="M61.3284 13H62.0884V7.04H60.2084V7.696H61.3284V13ZM63.666 13H67.57V12.344H64.698L66.17 10.792C67.034 9.888 67.426 9.28 67.426 8.616C67.426 7.632 66.666 6.944 65.602 6.944C64.65 6.944 63.89 7.456 63.618 8.264L64.218 8.568C64.434 7.952 64.914 7.616 65.586 7.616C66.266 7.616 66.666 7.992 66.666 8.648C66.666 9.256 66.29 9.728 65.314 10.76L63.658 12.488L63.666 13Z" fill="#49444C"/>
<path d="M36.0784 22H36.8384V16.04H34.9584V16.696H36.0784V22ZM39.344 22H40.104V16.04H38.224V16.696H39.344V22Z" fill="#49444C"/>
<path d="M15.8518 41H16.6118V35.04H14.7318V35.696H15.8518V41ZM20.6374 41.096C22.0534 41.096 22.9974 39.864 22.9974 38.016C22.9974 36.176 22.0534 34.944 20.6294 34.944C19.2214 34.944 18.2694 36.176 18.2694 38.016C18.2694 39.856 19.2294 41.096 20.6374 41.096ZM20.6374 40.392C19.6694 40.392 19.0294 39.448 19.0294 38.016C19.0294 36.584 19.6614 35.648 20.6294 35.648C21.6054 35.648 22.2454 36.584 22.2454 38.016C22.2454 39.456 21.6054 40.392 20.6374 40.392Z" fill="#49444C"/>
<path d="M20.0727 87.744C20.5127 87.48 20.7767 87.024 20.7767 86.504C20.7767 85.592 20.0247 84.944 19.0007 84.944C17.9767 84.944 17.2167 85.616 17.2167 86.504C17.2167 87.008 17.4727 87.48 17.9207 87.744C17.2967 88.032 16.9207 88.6 16.9207 89.272C16.9207 90.32 17.8007 91.096 19.0007 91.096C20.2007 91.096 21.0807 90.32 21.0807 89.272C21.0807 88.6 20.7047 88.032 20.0727 87.744ZM19.0007 85.6C19.5767 85.6 20.0087 85.984 20.0087 86.52C20.0087 87.064 19.5767 87.448 19.0007 87.448C18.4087 87.448 17.9847 87.064 17.9847 86.52C17.9847 85.992 18.4167 85.6 19.0007 85.6ZM19.0007 90.44C18.2407 90.44 17.6807 89.952 17.6807 89.272C17.6807 88.592 18.2407 88.104 19.0007 88.104C19.7687 88.104 20.3207 88.592 20.3207 89.272C20.3207 89.952 19.7607 90.44 19.0007 90.44Z" fill="#49444C"/>
<path d="M36.4787 110H37.2787L39.8867 104.688V104.032H36.1667V104.688H39.1107L36.4787 110Z" fill="#49444C"/>
<path d="M89.7112 22H90.4712V16.04H88.5912V16.696H89.7112V22Z" fill="#49444C"/>
<path d="M107.033 41H110.937V40.344H108.065L109.537 38.792C110.401 37.888 110.793 37.28 110.793 36.616C110.793 35.632 110.033 34.944 108.969 34.944C108.017 34.944 107.257 35.456 106.985 36.264L107.585 36.568C107.801 35.952 108.281 35.616 108.953 35.616C109.633 35.616 110.033 35.992 110.033 36.648C110.033 37.256 109.657 37.728 108.681 38.76L107.025 40.488L107.033 41Z" fill="#49444C"/>
<path d="M117.41 62.32L118.738 60.68V60.04H115.226V60.696L117.89 60.704L116.354 62.6L116.45 63.008C116.578 62.976 116.77 62.952 116.93 62.952C117.69 62.952 118.21 63.456 118.21 64.184C118.21 64.92 117.698 65.424 116.938 65.424C116.298 65.424 115.778 65.064 115.554 64.472L114.946 64.776C115.25 65.6 116.01 66.096 116.938 66.096C118.122 66.096 118.97 65.288 118.97 64.168C118.97 63.216 118.306 62.44 117.41 62.32Z" fill="#49444C"/>
<path d="M10.9999 59.944C9.87988 59.944 9.03988 60.76 9.03988 61.848C9.03988 62.88 9.89588 63.752 10.9599 63.752C11.1519 63.752 11.3279 63.72 11.4879 63.664L9.71988 66H10.5759L12.2959 63.696C12.7359 63.104 12.9599 62.528 12.9599 61.912C12.9599 60.768 12.1439 59.944 10.9999 59.944ZM10.9999 63.088C10.3119 63.088 9.79988 62.576 9.79988 61.856C9.79988 61.144 10.3119 60.616 10.9999 60.616C11.6879 60.616 12.1999 61.144 12.1999 61.856C12.1999 62.576 11.6959 63.088 10.9999 63.088Z" fill="#49444C"/>
<path d="M111.246 88.992H110.43V85.04H109.718L106.702 88.992V89.616H109.734V91H110.43V89.616H111.246V88.992ZM107.478 88.992L109.734 86.008V88.992H107.478Z" fill="#49444C"/>
<path d="M90.0031 106.2C89.6191 106.2 89.2911 106.288 89.0191 106.48L89.2191 104.688H91.7791V104.032H88.6831L88.3151 107.296L88.8271 107.408C89.0271 107.072 89.4511 106.872 89.9391 106.872C90.7151 106.872 91.2511 107.392 91.2511 108.144C91.2511 108.904 90.7151 109.424 89.9391 109.424C89.2991 109.424 88.7231 109.056 88.4831 108.472L87.8991 108.776C88.2031 109.592 88.9871 110.096 89.9391 110.096C91.1551 110.096 92.0111 109.28 92.0111 108.128C92.0111 107 91.1791 106.2 90.0031 106.2Z" fill="#49444C"/>
<path d="M64.0479 115.288C63.8559 115.288 63.6799 115.32 63.5199 115.376L65.2799 113.04H64.4239L62.7119 115.344C62.2719 115.936 62.0399 116.504 62.0399 117.128C62.0399 118.272 62.8559 119.096 63.9999 119.096C65.1279 119.096 65.9599 118.28 65.9599 117.192C65.9599 116.16 65.1039 115.288 64.0479 115.288ZM63.9999 118.424C63.3119 118.424 62.7999 117.896 62.7999 117.184C62.7999 116.464 63.3119 115.952 63.9999 115.952C64.6959 115.952 65.1999 116.464 65.1999 117.184C65.1999 117.896 64.6879 118.424 63.9999 118.424Z" fill="#49444C"/>
<rect x="61" y="60" width="6" height="6" rx="3" fill="#FFC8DD"/>
</svg>
